<svg xmlns="http://www.w3.org/2000/svg" viewBox="0 0 480 480" width="100%" height="100%">
  <defs>
    <radialGradient id="glow1" cx="50%" cy="35%" r="65%">
      <stop offset="0%" stop-color="#ffffff" stop-opacity="0.25"/>
      <stop offset="100%" stop-color="#ffffff" stop-opacity="0"/>
    </radialGradient>
  </defs>
  <circle cx="240" cy="240" r="220" fill="url(#glow1)"/>
  <g opacity="0.9">
    <circle cx="120" cy="110" r="5" fill="#fff"><animate attributeName="opacity" values="0.2;1;0.2" dur="3s" repeatCount="indefinite"/></circle>
    <circle cx="360" cy="150" r="4" fill="#fff"><animate attributeName="opacity" values="1;0.2;1" dur="2.4s" repeatCount="indefinite"/></circle>
    <circle cx="390" cy="330" r="4" fill="#fff"><animate attributeName="opacity" values="0.3;1;0.3" dur="3.6s" repeatCount="indefinite"/></circle>
    <circle cx="90" cy="330" r="3" fill="#fff"><animate attributeName="opacity" values="1;0.3;1" dur="2.8s" repeatCount="indefinite"/></circle>
  </g>
  <g transform="translate(140,120)">
    <rect x="0" y="30" width="200" height="230" rx="20" fill="#ffffff" opacity="0.14"/>
    <rect x="20" y="60" width="160" height="14" rx="7" fill="#ffffff" opacity="0.55"/>
    <rect x="20" y="90" width="110" height="10" rx="5" fill="#ffffff" opacity="0.35"/>
    <rect x="20" y="130" width="160" height="34" rx="10" fill="#ffffff" opacity="0.2"/>
    <rect x="20" y="176" width="160" height="34" rx="10" fill="#ffffff" opacity="0.2"/>
    <rect x="20" y="222" width="160" height="34" rx="10" fill="#ffffff" opacity="0.85"/>
    <rect x="80" y="234" width="40" height="10" rx="5" fill="#4527c2"/>
  </g>
  <g transform="translate(60,340)">
    <circle r="26" cx="26" cy="26" fill="#ffffff" opacity="0.9"/>
    <path d="M14 26l8 8 16-18" stroke="#4527c2" stroke-width="4" fill="none" stroke-linecap="round" stroke-linejoin="round"/>
  </g>
  <g transform="translate(350,60)">
    <circle r="20" cx="20" cy="20" fill="#ffffff" opacity="0.18"/>
    <path d="M20 8v24M8 20h24" stroke="#fff" stroke-width="3" stroke-linecap="round" opacity="0.7"/>
  </g>
</svg>
