<svg xmlns="http://www.w3.org/2000/svg" viewBox="0 0 480 480" width="100%" height="100%">
  <defs>
    <radialGradient id="glow2" cx="50%" cy="35%" r="65%">
      <stop offset="0%" stop-color="#ffffff" stop-opacity="0.25"/>
      <stop offset="100%" stop-color="#ffffff" stop-opacity="0"/>
    </radialGradient>
  </defs>
  <circle cx="240" cy="240" r="220" fill="url(#glow2)"/>
  <g transform="translate(120,90)">
    <path d="M120 0 138 44 186 50 150 82 160 130 120 106 80 130 90 82 54 50 102 44Z" fill="#ffffff" opacity="0.9"/>
  </g>
  <g transform="translate(110,150)">
    <rect x="0" y="20" width="220" height="230" rx="20" fill="#ffffff" opacity="0.14"/>
    <circle cx="110" cy="70" r="30" fill="#ffffff" opacity="0.5"/>
    <rect x="30" y="120" width="160" height="14" rx="7" fill="#ffffff" opacity="0.4"/>
    <rect x="30" y="150" width="160" height="30" rx="9" fill="#ffffff" opacity="0.2"/>
    <rect x="30" y="190" width="160" height="30" rx="9" fill="#ffffff" opacity="0.2"/>
    <rect x="30" y="230" width="160" height="30" rx="9" fill="#ffffff" opacity="0.85"/>
  </g>
  <g opacity="0.85">
    <circle cx="100" cy="90" r="4" fill="#fff"><animate attributeName="opacity" values="0.3;1;0.3" dur="3s" repeatCount="indefinite"/></circle>
    <circle cx="380" cy="120" r="5" fill="#fff"><animate attributeName="opacity" values="1;0.3;1" dur="2.6s" repeatCount="indefinite"/></circle>
    <circle cx="400" cy="360" r="4" fill="#fff"><animate attributeName="opacity" values="0.3;1;0.3" dur="3.4s" repeatCount="indefinite"/></circle>
  </g>
</svg>
